<?xml version="1.0" encoding="iso-8859-1"?>
<!-- Generator: Adobe Illustrator 19.0.0, SVG Export Plug-In . SVG Version: 6.00 Build 0)  -->
<svg version="1.1" id="Capa_1" xmlns="http://www.w3.org/2000/svg" xmlns:xlink="http://www.w3.org/1999/xlink" x="0px" y="0px"
	 viewBox="0 0 58 58" style="enable-background:new 0 0 58 58;" xml:space="preserve">
<g>
	<g>
		<path d="M52.995,30.5H51V19.495C51,12.881,45.613,7.5,38.992,7.5H19.008C12.387,7.5,7,12.881,7,19.495V30.5H5.005
			C2.245,30.5,0,32.747,0,35.51v5.99c0,0.553,0.448,1,1,1h1v2v6h2v-5h50v5h2v-6v-2h1c0.552,0,1-0.447,1-1v-5.99
			C58,32.747,55.755,30.5,52.995,30.5z M9,19.495C9,13.983,13.489,9.5,19.008,9.5h19.984C44.511,9.5,49,13.983,49,19.495V30.5h-6
			v-4.444c0-0.422-0.265-0.799-0.662-0.941C42.154,25.049,37.814,23.5,35.5,23.5c-1.975,0-5.417,1.125-6.5,1.497
			c-1.083-0.371-4.525-1.497-6.5-1.497c-2.314,0-6.654,1.549-6.838,1.614C15.265,25.257,15,25.634,15,26.056V30.5H9V19.495z
			 M41,26.77v3.73H30v-3.73c1.475-0.49,4.114-1.27,5.5-1.27S39.525,26.279,41,26.77z M28,26.77v3.73H17v-3.73
			c1.475-0.49,4.114-1.27,5.5-1.27S26.525,26.279,28,26.77z M54,43.5H4v-1h50V43.5z M56,40.5h-1H3H2v-4.99
			c0-1.659,1.348-3.01,3.005-3.01H8h8h13h13h8h2.995c1.657,0,3.005,1.351,3.005,3.01V40.5z"/>
		<path d="M28.538,22.605c0.147,0.079,0.309,0.118,0.471,0.118s0.324-0.039,0.471-0.118c1.229-0.655,7.36-4.098,7.36-7.45
			c0-2.118-0.82-4.644-4.726-4.644c-1.158,0-2.255,0.413-3.105,1.142c-0.85-0.728-1.947-1.142-3.105-1.142
			c-3.906,0-4.726,2.525-4.726,4.644C21.178,18.508,27.309,21.95,28.538,22.605z M25.904,12.512c0.919,0,1.771,0.445,2.278,1.19
			c0.372,0.549,1.282,0.549,1.654,0c0.507-0.745,1.358-1.19,2.278-1.19c1.987,0,2.726,0.717,2.726,2.644
			c0,1.505-3.265,3.976-5.831,5.427c-2.566-1.451-5.831-3.922-5.831-5.427C23.178,13.229,23.917,12.512,25.904,12.512z"/>
	</g>
</g>
<g>
</g>
<g>
</g>
<g>
</g>
<g>
</g>
<g>
</g>
<g>
</g>
<g>
</g>
<g>
</g>
<g>
</g>
<g>
</g>
<g>
</g>
<g>
</g>
<g>
</g>
<g>
</g>
<g>
</g>
</svg>
