<?xml version="1.0" encoding="iso-8859-1"?>
<!-- Generator: Adobe Illustrator 19.0.0, SVG Export Plug-In . SVG Version: 6.00 Build 0)  -->
<svg version="1.1" id="Layer_1" xmlns="http://www.w3.org/2000/svg" xmlns:xlink="http://www.w3.org/1999/xlink" x="0px" y="0px"
	 viewBox="0 0 512 512" style="enable-background:new 0 0 512 512;" xml:space="preserve">
<g>
	<g>
		<path d="M504,280c-2.208,0-4,1.788-4,4v220H12V284c0-2.212-1.792-4-4-4s-4,1.788-4,4v224c0,2.212,1.792,4,4,4h496
			c2.208,0,4-1.788,4-4V284C508,281.788,506.208,280,504,280z"/>
	</g>
</g>
<g>
	<g>
		<path d="M504,0H312c-2.208,0-4,1.792-4,4s1.792,4,4,4h188v144c0,2.208,1.792,4,4,4s4-1.792,4-4V4C508,1.792,506.208,0,504,0z"/>
	</g>
</g>
<g>
	<g>
		<path d="M120,0H8C5.792,0,4,1.792,4,4v148c0,2.208,1.792,4,4,4s4-1.792,4-4V8h108c2.208,0,4-1.792,4-4S122.208,0,120,0z"/>
	</g>
</g>
<g>
	<g>
		<path d="M508,264H4c-2.208,0-4,1.788-4,4v16c0,2.212,1.792,4,4,4h504c2.208,0,4-1.788,4-4v-16C512,265.788,510.208,264,508,264z
			 M504,280H8v-8h496V280z"/>
	</g>
</g>
<g>
	<g>
		<path d="M120,280c-2.208,0-4,1.788-4,4v220c0,2.212,1.792,4,4,4s4-1.788,4-4V284C124,281.788,122.208,280,120,280z"/>
	</g>
</g>
<g>
	<g>
		<path d="M120,0c-2.208,0-4,1.792-4,4v148c0,2.208,1.792,4,4,4s4-1.792,4-4V4C124,1.792,122.208,0,120,0z"/>
	</g>
</g>
<g>
	<g>
		<path d="M312,280c-2.208,0-4,1.788-4,4v224c0,2.212,1.792,4,4,4s4-1.788,4-4V284C316,281.788,314.208,280,312,280z"/>
	</g>
</g>
<g>
	<g>
		<path d="M408,280c-2.208,0-4,1.788-4,4v208c0,2.212,1.792,4,4,4s4-1.788,4-4V284C412,281.788,410.208,280,408,280z"/>
	</g>
</g>
<g>
	<g>
		<path d="M312,0c-2.208,0-4,1.792-4,4v148c0,2.208,1.792,4,4,4s4-1.792,4-4V4C316,1.792,314.208,0,312,0z"/>
	</g>
</g>
<g>
	<g>
		<path d="M408,0c-2.208,0-4,1.792-4,4v132c0,2.208,1.792,4,4,4s4-1.792,4-4V4C412,1.792,410.208,0,408,0z"/>
	</g>
</g>
<g>
	<g>
		<path d="M312,440H120c-2.208,0-4,1.788-4,4c0,2.212,1.792,4,4,4h192c2.208,0,4-1.788,4-4C316,441.788,314.208,440,312,440z"/>
	</g>
</g>
<g>
	<g>
		<path d="M104,348H8c-2.208,0-4,1.788-4,4c0,2.212,1.792,4,4,4h96c2.208,0,4-1.788,4-4C108,349.788,106.208,348,104,348z"/>
	</g>
</g>
<g>
	<g>
		<path d="M312,324H120c-2.208,0-4,1.788-4,4c0,2.212,1.792,4,4,4h192c2.208,0,4-1.788,4-4C316,325.788,314.208,324,312,324z"/>
	</g>
</g>
<g>
	<g>
		<path d="M272,340H160c-2.208,0-4,1.788-4,4c0,2.212,1.792,4,4,4h112c2.208,0,4-1.788,4-4C276,341.788,274.208,340,272,340z"/>
	</g>
</g>
<g>
	<g>
		<path d="M80,300H48c-2.208,0-4,1.788-4,4c0,2.212,1.792,4,4,4h32c2.208,0,4-1.788,4-4C84,301.788,82.208,300,80,300z"/>
	</g>
</g>
<g>
	<g>
		<path d="M504,148H8c-2.208,0-4,1.792-4,4s1.792,4,4,4h496c2.208,0,4-1.792,4-4S506.208,148,504,148z"/>
	</g>
</g>
<g>
	<g>
		<path d="M252,0h-72c-2.208,0-4,1.792-4,4v96c0,2.208,1.792,4,4,4h72c2.208,0,4-1.792,4-4V4C256,1.792,254.208,0,252,0z M248,96
			h-64V8h64V96z"/>
	</g>
</g>
<g>
	<g>
		<path d="M183.024,97.38c-1.448-1.672-3.976-1.848-5.644-0.404l-60,52c-1.668,1.448-1.848,3.976-0.404,5.644
			c0.788,0.912,1.904,1.38,3.024,1.38c0.928,0,1.864-0.324,2.62-0.976l60-52C184.288,101.576,184.468,99.048,183.024,97.38z"/>
	</g>
</g>
<g>
	<g>
		<path d="M314.624,148.976l-60-52c-1.668-1.44-4.196-1.264-5.644,0.404c-1.444,1.668-1.264,4.196,0.404,5.644l60,52
			C310.14,155.676,311.072,156,312,156c1.116,0,2.232-0.468,3.028-1.38C316.472,152.952,316.292,150.424,314.624,148.976z"/>
	</g>
</g>
<g>
	<g>
		<path d="M20,152c-2.208,0-4,1.792-4,4v112c0,2.212,1.792,4,4,4s4-1.788,4-4V156C24,153.792,22.208,152,20,152z"/>
	</g>
</g>
<g>
	<g>
		<path d="M492,152c-2.208,0-4,1.792-4,4v112c0,2.212,1.792,4,4,4s4-1.788,4-4V156C496,153.792,494.208,152,492,152z"/>
	</g>
</g>
<g>
	<g>
		<path d="M100,372c-2.208,0-4,1.788-4,4v32c0,2.212,1.792,4,4,4s4-1.788,4-4v-32C104,373.788,102.208,372,100,372z"/>
	</g>
</g>
<g>
	<g>
		<path d="M100,96c-2.208,0-4,1.792-4,4v32c0,2.208,1.792,4,4,4s4-1.792,4-4v-32C104,97.792,102.208,96,100,96z"/>
	</g>
</g>
<g>
	<g>
		<path d="M388,300c-2.208,0-4,1.788-4,4v32c0,2.212,1.792,4,4,4s4-1.788,4-4v-32C392,301.788,390.208,300,388,300z"/>
	</g>
</g>
<g>
	<g>
		<path d="M428,300c-2.208,0-4,1.788-4,4v32c0,2.212,1.792,4,4,4s4-1.788,4-4v-32C432,301.788,430.208,300,428,300z"/>
	</g>
</g>
<g>
	<g>
		<path d="M388,96c-2.208,0-4,1.792-4,4v32c0,2.208,1.792,4,4,4s4-1.792,4-4v-32C392,97.792,390.208,96,388,96z"/>
	</g>
</g>
<g>
	<g>
		<path d="M428,96c-2.208,0-4,1.792-4,4v32c0,2.208,1.792,4,4,4s4-1.792,4-4v-32C432,97.792,430.208,96,428,96z"/>
	</g>
</g>
<g>
	<g>
		<path d="M180,12h-60c-2.208,0-4,1.792-4,4s1.792,4,4,4h60c2.208,0,4-1.792,4-4S182.208,12,180,12z"/>
	</g>
</g>
<g>
	<g>
		<path d="M312,12h-60c-2.208,0-4,1.792-4,4s1.792,4,4,4h60c2.208,0,4-1.792,4-4S314.208,12,312,12z"/>
	</g>
</g>
<g>
	<g>
		<path d="M272,360H160c-2.208,0-4,1.788-4,4v56c0,2.212,1.792,4,4,4h112c2.208,0,4-1.788,4-4v-56C276,361.788,274.208,360,272,360z
			 M268,416H164v-48h104V416z"/>
	</g>
</g>
<g>
	<g>
		<path d="M174,296c-5.512,0-10,4.484-10,10s4.488,10,10,10c5.512,0,10-4.484,10-10S179.512,296,174,296z M174,308
			c-1.104,0-2-0.9-2-2c0-1.1,0.896-2,2-2s2,0.9,2,2C176,307.1,175.104,308,174,308z"/>
	</g>
</g>
<g>
	<g>
		<path d="M258,296c-5.512,0-10,4.484-10,10s4.488,10,10,10c5.512,0,10-4.484,10-10S263.512,296,258,296z M258,308
			c-1.104,0-2-0.9-2-2c0-1.1,0.896-2,2-2s2,0.9,2,2C260,307.1,259.104,308,258,308z"/>
	</g>
</g>
<g>
	<g>
		<g>
			<path d="M452,24h-16c-2.208,0-4,1.792-4,4s1.792,4,4,4h16c2.208,0,4-1.792,4-4S454.208,24,452,24z"/>
			<path d="M484,24h-16c-2.208,0-4,1.792-4,4s1.792,4,4,4h12v52c0,2.208,1.792,4,4,4s4-1.792,4-4V28C488,25.792,486.208,24,484,24z"
				/>
		</g>
	</g>
</g>
<g>
	<g>
		<path d="M28,444c-2.208,0-4,1.788-4,4v40c0,2.212,1.792,4,4,4s4-1.788,4-4v-40C32,445.788,30.208,444,28,444z"/>
	</g>
</g>
<g>
	<g>
		<path d="M28,412c-2.208,0-4,1.788-4,4v12c0,2.212,1.792,4,4,4s4-1.788,4-4v-12C32,413.788,30.208,412,28,412z"/>
	</g>
</g>
<g>
</g>
<g>
</g>
<g>
</g>
<g>
</g>
<g>
</g>
<g>
</g>
<g>
</g>
<g>
</g>
<g>
</g>
<g>
</g>
<g>
</g>
<g>
</g>
<g>
</g>
<g>
</g>
<g>
</g>
</svg>
